<svg xmlns="http://www.w3.org/2000/svg"
     width="420"
     height="180"
     viewBox="0 0 420 180">

    <rect width="420" height="180" fill="#020506"/>

    <!-- outer orbital arcs -->
    <path d="M120 72
             A92 92 0 0 1 300 72"
          fill="none"
          stroke="#00D9EA"
          stroke-width="1.5"
          opacity=".55"/>

    <path d="M108 108
             A104 104 0 0 1 312 108"
          fill="none"
          stroke="#0A5964"
          stroke-width="1"
          opacity=".4"/>

    <!-- DYSEN symbol -->
    <path d="
        M145 50
        H230
        C259 50 278 62 287 79
        C296 96 296 117 287 134
        C277 151 258 160 229 160
        H145
        L164 139
        H225
        C245 139 259 133 266 121
        C273 109 273 94 266 82
        C259 70 245 65 225 65
        H164
        Z
    "
    fill="none"
    stroke="#F2FCFF"
    stroke-width="5"
    stroke-linejoin="round"/>

    <!-- inner D stem -->
    <path d="
        M170 72
        V132
    "
    fill="none"
    stroke="#F2FCFF"
    stroke-width="5"/>

    <!-- cyan diagonal -->
    <path d="
        M118 153
        L300 27
    "
    fill="none"
    stroke="#00D9EA"
    stroke-width="3"/>

    <!-- wordmark -->
    <text x="210"
          y="28"
          text-anchor="middle"
          fill="#F2FCFF"
          font-family="monospace"
          font-size="17"
          letter-spacing="12">
        DYSEN
    </text>

    <!-- system ui -->
    <text x="210"
          y="176"
          text-anchor="middle"
          fill="#00D9EA"
          font-family="monospace"
          font-size="8"
          letter-spacing="8">
        SYSTEM UI
    </text>

</svg>
